<?xml version="1.0" encoding="UTF-8" standalone="no"?>
<svg
   version="1.1"
   width="29.700220cm"
   height="21.000720cm"
   viewBox="0 0 297002200 210007200"
   id="svg1194"
   sodipodi:docname="MusicFilter-B_Silkscreen.svg"
   inkscape:version="1.1.1 (3bf5ae0d25, 2021-09-20)"
   xmlns:inkscape="http://www.inkscape.org/namespaces/inkscape"
   xmlns:sodipodi="http://sodipodi.sourceforge.net/DTD/sodipodi-0.dtd"
   xmlns="http://www.w3.org/2000/svg"
   xmlns:svg="http://www.w3.org/2000/svg">
  <defs
     id="defs1198" />
  <sodipodi:namedview
     id="namedview1196"
     pagecolor="#505050"
     bordercolor="#eeeeee"
     borderopacity="1"
     inkscape:pageshadow="0"
     inkscape:pageopacity="0"
     inkscape:pagecheckerboard="0"
     inkscape:document-units="cm"
     showgrid="false"
     inkscape:zoom="0.90585192"
     inkscape:cx="560.79806"
     inkscape:cy="396.31202"
     inkscape:window-width="1920"
     inkscape:window-height="1027"
     inkscape:window-x="-8"
     inkscape:window-y="-8"
     inkscape:window-maximized="1"
     inkscape:current-layer="svg1194" />
  <title
     id="title2">SVG Picture created as MusicFilter-B_Silkscreen.svg date 2022/05/05 18:26:00 </title>
  <desc
     id="desc4">Picture generated by PCBNEW </desc>
  <g
     id="g2609"
     inkscape:export-filename="C:\Users\Administrator\Desktop\Dino\Board\Rendering\Textures\bSlk.png"
     inkscape:export-xdpi="1000"
     inkscape:export-ydpi="1000">
    <g
       style="fill:#000000; fill-opacity:1.000000;stroke:#000000; stroke-opacity:1.000000; stroke-linecap:round; stroke-linejoin:round;"
       transform="translate(0 0) scale(1 1)"
       id="g6" />
    <g
       style="fill:#000000; fill-opacity:0.0;  stroke:#000000; stroke-width:0.000000; stroke-opacity:1;  stroke-linecap:round; stroke-linejoin:round;"
       id="g8" />
    <g
       style="fill:#000000; fill-opacity:0.0;  stroke:#000000; stroke-width:100000.000000; stroke-opacity:1;  stroke-linecap:round; stroke-linejoin:round;"
       id="g50">
      <path
         d="M25000000.000000 130000000.000000 A9999999.000000 9999999.000000 0.0 0 0 35000000.000000 140000000.000000"
         id="path10" />
      <path
         d="M35000000 140000000 L52500000 140000000 "
         id="path12" />
      <path
         d="M122500000 135000000 L137500000 135000000 "
         id="path14" />
      <path
         d="M57500000 135000000 L72500000 135000000 "
         id="path16" />
      <path
         d="M140000000.000000 137500000.000000 A2500000.000000 2500000.000000 0.0 0 0 142500000.000000 140000000.000000"
         id="path18" />
      <path
         d="M140000000.000000 137500000.000000 A2500000.000000 2500000.000000 0.0 0 0 137500000.000000 135000000.000000"
         id="path20" />
      <path
         d="M75000000.000000 137500000.000000 A2500000.000000 2500000.000000 0.0 0 0 77500000.000000 140000000.000000"
         id="path22" />
      <path
         d="M35000000.000000 90000000.000000 A9999999.000000 9999999.000000 0.0 0 0 25000000.000000 100000000.000000"
         id="path24" />
      <path
         d="M170000000.000000 100000000.000000 A9999999.000000 9999999.000000 0.0 0 0 160000000.000000 90000000.000000"
         id="path26" />
      <path
         d="M75000000.000000 137500000.000000 A2500000.000000 2500000.000000 0.0 0 0 72500000.000000 135000000.000000"
         id="path28" />
      <path
         d="M25000000 100000000 L25000000 130000000 "
         id="path30" />
      <path
         d="M170000000 130000000 L170000000 100000000 "
         id="path32" />
      <path
         d="M160000000.000000 140000000.000000 A9999999.000000 9999999.000000 0.0 0 0 170000000.000000 130000000.000000"
         id="path34" />
      <path
         d="M142500000 140000000 L160000000 140000000 "
         id="path36" />
      <path
         d="M77500000 140000000 L117500000 140000000 "
         id="path38" />
      <path
         d="M117500000.000000 140000000.000000 A2500000.000000 2500000.000000 0.0 0 0 120000000.000000 137500000.000000"
         id="path40" />
      <path
         d="M52500000.000000 140000000.000000 A2500000.000000 2500000.000000 0.0 0 0 55000000.000000 137500000.000000"
         id="path42" />
      <path
         d="M122500000.000000 135000000.000000 A2500000.000000 2500000.000000 0.0 0 0 120000000.000000 137500000.000000"
         id="path44" />
      <path
         d="M160000000 90000000 L35000000 90000000 "
         id="path46" />
      <path
         d="M57500000.000000 135000000.000000 A2500000.000000 2500000.000000 0.0 0 0 55000000.000000 137500000.000000"
         id="path48" />
    </g>
    <g
       style="fill:#000000; fill-opacity:0.0;  stroke:#000000; stroke-width:150000.000000; stroke-opacity:1;  stroke-linecap:round; stroke-linejoin:round;"
       id="g328">
      <text
         x="96000000.000000"
         y="115870000.000000"
         transform="scale(-1 1) translate(-192000000.000000 0)"
         textLength="2709762.000000"
         font-size="1333333.000000"
         lengthAdjust="spacingAndGlyphs"
         text-anchor="middle"
         opacity="0"
         id="text52">C20</text>
      <g
         class="stroked-text"
         id="g62">
        <desc
           id="desc54">C20</desc>
        <path
           d="M96642857 115727142 L96690476 115774761 L96833333 115822380 L96928571 115822380 L97071428 115774761 L97166666 115679523 L97214285 115584285 L97261904 115393809 L97261904 115250952 L97214285 115060476 L97166666 114965238 L97071428 114870000 L96928571 114822380 L96833333 114822380 L96690476 114870000 L96642857 114917619 "
           id="path56" />
        <path
           d="M96261904 114917619 L96214285 114870000 L96119047 114822380 L95880952 114822380 L95785714 114870000 L95738095 114917619 L95690476 115012857 L95690476 115108095 L95738095 115250952 L96309523 115822380 L95690476 115822380 "
           id="path58" />
        <path
           d="M95071428 114822380 L94976190 114822380 L94880952 114870000 L94833333 114917619 L94785714 115012857 L94738095 115203333 L94738095 115441428 L94785714 115631904 L94833333 115727142 L94880952 115774761 L94976190 115822380 L95071428 115822380 L95166666 115774761 L95214285 115727142 L95261904 115631904 L95309523 115441428 L95309523 115203333 L95261904 115012857 L95214285 114917619 L95166666 114870000 L95071428 114822380 "
           id="path60" />
      </g>
      <g
         transform="rotate(-90.000000 132550000.000000 120800000.000000)"
         id="g66">
        <text
           x="132550000.000000"
           y="121300000.000000"
           transform="scale(-1 1) translate(-265100000.000000 0)"
           textLength="2709762.000000"
           font-size="1333333.000000"
           lengthAdjust="spacingAndGlyphs"
           text-anchor="middle"
           opacity="0"
           id="text64">C14</text>
      </g>
      <g
         class="stroked-text"
         id="g80">
        <desc
           id="desc68">C14</desc>
        <path
           d="M132907142 120157142 L132954761 120109523 L133002380 119966666 L133002380 119871428 L132954761 119728571 L132859523 119633333 L132764285 119585714 L132573809 119538095 L132430952 119538095 L132240476 119585714 L132145238 119633333 L132050000 119728571 L132002380 119871428 L132002380 119966666 L132050000 120109523 L132097619 120157142 "
           id="path70" />
        <path
           d="M133002380 121109523 L133002380 120538095 "
           id="path72" />
        <path
           d="M133002380 120823809 L132002380 120823809 L132145238 120728571 L132240476 120633333 L132288095 120538095 "
           id="path74" />
        <path
           d="M132335714 121966666 L133002380 121966666 "
           id="path76" />
        <path
           d="M131954761 121728571 L132669047 121490476 L132669047 122109523 "
           id="path78" />
      </g>
      <text
         x="105112500.000000"
         y="113775000.000000"
         transform="scale(-1 1) translate(-210225000.000000 0)"
         textLength="1757381.000000"
         font-size="1333333.000000"
         lengthAdjust="spacingAndGlyphs"
         text-anchor="middle"
         opacity="0"
         id="text82">R8</text>
      <g
         class="stroked-text"
         id="g92">
        <desc
           id="desc84">R8</desc>
        <path
           d="M105279166 113727380 L105612500 113251190 "
           id="path86" />
        <path
           d="M105850595 113727380 L105850595 112727380 L105469642 112727380 L105374404 112775000 L105326785 112822619 L105279166 112917857 L105279166 113060714 L105326785 113155952 L105374404 113203571 L105469642 113251190 L105850595 113251190 "
           id="path88" />
        <path
           d="M104707738 113155952 L104802976 113108333 L104850595 113060714 L104898214 112965476 L104898214 112917857 L104850595 112822619 L104802976 112775000 L104707738 112727380 L104517261 112727380 L104422023 112775000 L104374404 112822619 L104326785 112917857 L104326785 112965476 L104374404 113060714 L104422023 113108333 L104517261 113155952 L104707738 113155952 L104802976 113203571 L104850595 113251190 L104898214 113346428 L104898214 113536904 L104850595 113632142 L104802976 113679761 L104707738 113727380 L104517261 113727380 L104422023 113679761 L104374404 113632142 L104326785 113536904 L104326785 113346428 L104374404 113251190 L104422023 113203571 L104517261 113155952 "
           id="path90" />
      </g>
      <text
         x="86850000.000000"
         y="129100000.000000"
         transform="scale(-1 1) translate(-173700000.000000 0)"
         textLength="1757381.000000"
         font-size="1333333.000000"
         lengthAdjust="spacingAndGlyphs"
         text-anchor="middle"
         opacity="0"
         id="text94">D2</text>
      <g
         class="stroked-text"
         id="g102">
        <desc
           id="desc96">D2</desc>
        <path
           d="M87588095 129052380 L87588095 128052380 L87350000 128052380 L87207142 128100000 L87111904 128195238 L87064285 128290476 L87016666 128480952 L87016666 128623809 L87064285 128814285 L87111904 128909523 L87207142 129004761 L87350000 129052380 L87588095 129052380 "
           id="path98" />
        <path
           d="M86635714 128147619 L86588095 128100000 L86492857 128052380 L86254761 128052380 L86159523 128100000 L86111904 128147619 L86064285 128242857 L86064285 128338095 L86111904 128480952 L86683333 129052380 L86064285 129052380 "
           id="path100" />
      </g>
      <g
         transform="rotate(-90.000000 132550000.000000 131050000.000000)"
         id="g106">
        <text
           x="132550000.000000"
           y="131550000.000000"
           transform="scale(-1 1) translate(-265100000.000000 0)"
           textLength="2614524.000000"
           font-size="1333333.000000"
           lengthAdjust="spacingAndGlyphs"
           text-anchor="middle"
           opacity="0"
           id="text104">FB1</text>
      </g>
      <g
         class="stroked-text"
         id="g120">
        <desc
           id="desc108">FB1</desc>
        <path
           d="M132478571 130216666 L132478571 129883333 "
           id="path110" />
        <path
           d="M133002380 129883333 L132002380 129883333 L132002380 130359523 "
           id="path112" />
        <path
           d="M132478571 131073809 L132526190 131216666 L132573809 131264285 L132669047 131311904 L132811904 131311904 L132907142 131264285 L132954761 131216666 L133002380 131121428 L133002380 130740476 L132002380 130740476 L132002380 131073809 L132050000 131169047 L132097619 131216666 L132192857 131264285 L132288095 131264285 L132383333 131216666 L132430952 131169047 L132478571 131073809 L132478571 130740476 "
           id="path114" />
        <path
           d="M133002380 132264285 L133002380 131692857 "
           id="path116" />
        <path
           d="M133002380 131978571 L132002380 131978571 L132145238 131883333 L132240476 131788095 L132288095 131692857 "
           id="path118" />
      </g>
      <text
         x="153800000.000000"
         y="134350000.000000"
         transform="scale(-1 1) translate(-307600000.000000 0)"
         textLength="1614524.000000"
         font-size="1333333.000000"
         lengthAdjust="spacingAndGlyphs"
         text-anchor="middle"
         opacity="0"
         id="text122">Y1</text>
      <g
         class="stroked-text"
         id="g134">
        <desc
           id="desc124">Y1</desc>
        <path
           d="M154276190 133826190 L154276190 134302380 "
           id="path126" />
        <path
           d="M154609523 133302380 L154276190 133826190 L153942857 133302380 "
           id="path128" />
        <path
           d="M153085714 134302380 L153657142 134302380 "
           id="path130" />
        <path
           d="M153371428 134302380 L153371428 133302380 L153466666 133445238 L153561904 133540476 L153657142 133588095 "
           id="path132" />
      </g>
      <g
         transform="rotate(-90.000000 44700000.000000 112450000.000000)"
         id="g138">
        <text
           x="44700000.000000"
           y="112950000.000000"
           transform="scale(-1 1) translate(-89400000.000000 0)"
           textLength="1757381.000000"
           font-size="1333333.000000"
           lengthAdjust="spacingAndGlyphs"
           text-anchor="middle"
           opacity="0"
           id="text136">D3</text>
      </g>
      <g
         class="stroked-text"
         id="g146">
        <desc
           id="desc140">D3</desc>
        <path
           d="M45152380 111711904 L44152380 111711904 L44152380 111950000 L44200000 112092857 L44295238 112188095 L44390476 112235714 L44580952 112283333 L44723809 112283333 L44914285 112235714 L45009523 112188095 L45104761 112092857 L45152380 111950000 L45152380 111711904 "
           id="path142" />
        <path
           d="M44152380 112616666 L44152380 113235714 L44533333 112902380 L44533333 113045238 L44580952 113140476 L44628571 113188095 L44723809 113235714 L44961904 113235714 L45057142 113188095 L45104761 113140476 L45152380 113045238 L45152380 112759523 L45104761 112664285 L45057142 112616666 "
           id="path144" />
      </g>
      <g
         transform="rotate(-90.000000 143850000.000000 112300000.000000)"
         id="g150">
        <text
           x="143850000.000000"
           y="112800000.000000"
           transform="scale(-1 1) translate(-287700000.000000 0)"
           textLength="1757381.000000"
           font-size="1333333.000000"
           lengthAdjust="spacingAndGlyphs"
           text-anchor="middle"
           opacity="0"
           id="text148">D6</text>
      </g>
      <g
         class="stroked-text"
         id="g158">
        <desc
           id="desc152">D6</desc>
        <path
           d="M144302380 111561904 L143302380 111561904 L143302380 111800000 L143350000 111942857 L143445238 112038095 L143540476 112085714 L143730952 112133333 L143873809 112133333 L144064285 112085714 L144159523 112038095 L144254761 111942857 L144302380 111800000 L144302380 111561904 "
           id="path154" />
        <path
           d="M143302380 112990476 L143302380 112800000 L143350000 112704761 L143397619 112657142 L143540476 112561904 L143730952 112514285 L144111904 112514285 L144207142 112561904 L144254761 112609523 L144302380 112704761 L144302380 112895238 L144254761 112990476 L144207142 113038095 L144111904 113085714 L143873809 113085714 L143778571 113038095 L143730952 112990476 L143683333 112895238 L143683333 112704761 L143730952 112609523 L143778571 112561904 L143873809 112514285 "
           id="path156" />
      </g>
      <g
         transform="rotate(-90.000000 117250000.000000 130400000.000000)"
         id="g162">
        <text
           x="117250000.000000"
           y="130900000.000000"
           transform="scale(-1 1) translate(-234500000.000000 0)"
           textLength="1614524.000000"
           font-size="1333333.000000"
           lengthAdjust="spacingAndGlyphs"
           text-anchor="middle"
           opacity="0"
           id="text160">F1</text>
      </g>
      <g
         class="stroked-text"
         id="g174">
        <desc
           id="desc164">F1</desc>
        <path
           d="M117178571 130066666 L117178571 129733333 "
           id="path166" />
        <path
           d="M117702380 129733333 L116702380 129733333 L116702380 130209523 "
           id="path168" />
        <path
           d="M117702380 131114285 L117702380 130542857 "
           id="path170" />
        <path
           d="M117702380 130828571 L116702380 130828571 L116845238 130733333 L116940476 130638095 L116988095 130542857 "
           id="path172" />
      </g>
      <g
         transform="rotate(-90.000000 116350000.000000 138100000.000000)"
         id="g178">
        <text
           x="116350000.000000"
           y="138600000.000000"
           transform="scale(-1 1) translate(-232700000.000000 0)"
           textLength="2852619.000000"
           font-size="1333333.000000"
           lengthAdjust="spacingAndGlyphs"
           text-anchor="middle"
           opacity="0"
           id="text176">SW5</text>
      </g>
      <g
         class="stroked-text"
         id="g188">
        <desc
           id="desc180">SW5</desc>
        <path
           d="M116754761 136766666 L116802380 136909523 L116802380 137147619 L116754761 137242857 L116707142 137290476 L116611904 137338095 L116516666 137338095 L116421428 137290476 L116373809 137242857 L116326190 137147619 L116278571 136957142 L116230952 136861904 L116183333 136814285 L116088095 136766666 L115992857 136766666 L115897619 136814285 L115850000 136861904 L115802380 136957142 L115802380 137195238 L115850000 137338095 "
           id="path182" />
        <path
           d="M115802380 137671428 L116802380 137909523 L116088095 138100000 L116802380 138290476 L115802380 138528571 "
           id="path184" />
        <path
           d="M115802380 139385714 L115802380 138909523 L116278571 138861904 L116230952 138909523 L116183333 139004761 L116183333 139242857 L116230952 139338095 L116278571 139385714 L116373809 139433333 L116611904 139433333 L116707142 139385714 L116754761 139338095 L116802380 139242857 L116802380 139004761 L116754761 138909523 L116707142 138861904 "
           id="path186" />
      </g>
      <text
         x="104650000.000000"
         y="128950000.000000"
         transform="scale(-1 1) translate(-209300000.000000 0)"
         textLength="2709762.000000"
         font-size="1333333.000000"
         lengthAdjust="spacingAndGlyphs"
         text-anchor="middle"
         opacity="0"
         id="text190">C16</text>
      <g
         class="stroked-text"
         id="g202">
        <desc
           id="desc192">C16</desc>
        <path
           d="M105292857 128807142 L105340476 128854761 L105483333 128902380 L105578571 128902380 L105721428 128854761 L105816666 128759523 L105864285 128664285 L105911904 128473809 L105911904 128330952 L105864285 128140476 L105816666 128045238 L105721428 127950000 L105578571 127902380 L105483333 127902380 L105340476 127950000 L105292857 127997619 "
           id="path194" />
        <path
           d="M104340476 128902380 L104911904 128902380 "
           id="path196" />
        <path
           d="M104626190 128902380 L104626190 127902380 L104721428 128045238 L104816666 128140476 L104911904 128188095 "
           id="path198" />
        <path
           d="M103483333 127902380 L103673809 127902380 L103769047 127950000 L103816666 127997619 L103911904 128140476 L103959523 128330952 L103959523 128711904 L103911904 128807142 L103864285 128854761 L103769047 128902380 L103578571 128902380 L103483333 128854761 L103435714 128807142 L103388095 128711904 L103388095 128473809 L103435714 128378571 L103483333 128330952 L103578571 128283333 L103769047 128283333 L103864285 128330952 L103911904 128378571 L103959523 128473809 "
           id="path200" />
      </g>
      <text
         x="147600000.000000"
         y="118600000.000000"
         transform="scale(-1 1) translate(-295200000.000000 0)"
         textLength="1805000.000000"
         font-size="1333333.000000"
         lengthAdjust="spacingAndGlyphs"
         text-anchor="middle"
         opacity="0"
         id="text204">U1</text>
      <g
         class="stroked-text"
         id="g214">
        <desc
           id="desc206">U1</desc>
        <path
           d="M148361904 117552380 L148361904 118361904 L148314285 118457142 L148266666 118504761 L148171428 118552380 L147980952 118552380 L147885714 118504761 L147838095 118457142 L147790476 118361904 L147790476 117552380 "
           id="path208" />
        <path
           d="M146790476 118552380 L147361904 118552380 "
           id="path210" />
        <path
           d="M147076190 118552380 L147076190 117552380 L147171428 117695238 L147266666 117790476 L147361904 117838095 "
           id="path212" />
      </g>
      <g
         transform="rotate(-90.000000 43700000.000000 105162500.000000)"
         id="g218">
        <text
           x="43700000.000000"
           y="105662500.000000"
           transform="scale(-1 1) translate(-87400000.000000 0)"
           textLength="1757381.000000"
           font-size="1333333.000000"
           lengthAdjust="spacingAndGlyphs"
           text-anchor="middle"
           opacity="0"
           id="text216">R4</text>
      </g>
      <g
         class="stroked-text"
         id="g230">
        <desc
           id="desc220">R4</desc>
        <path
           d="M44152380 104995833 L43676190 104662500 "
           id="path222" />
        <path
           d="M44152380 104424404 L43152380 104424404 L43152380 104805357 L43200000 104900595 L43247619 104948214 L43342857 104995833 L43485714 104995833 L43580952 104948214 L43628571 104900595 L43676190 104805357 L43676190 104424404 "
           id="path224" />
        <path
           d="M43485714 105852976 L44152380 105852976 "
           id="path226" />
        <path
           d="M43104761 105614880 L43819047 105376785 L43819047 105995833 "
           id="path228" />
      </g>
      <text
         x="52700000.000000"
         y="110650000.000000"
         transform="scale(-1 1) translate(-105400000.000000 0)"
         textLength="2709762.000000"
         font-size="1333333.000000"
         lengthAdjust="spacingAndGlyphs"
         text-anchor="middle"
         opacity="0"
         id="text232">R10</text>
      <g
         class="stroked-text"
         id="g246">
        <desc
           id="desc234">R10</desc>
        <path
           d="M53342857 110602380 L53676190 110126190 "
           id="path236" />
        <path
           d="M53914285 110602380 L53914285 109602380 L53533333 109602380 L53438095 109650000 L53390476 109697619 L53342857 109792857 L53342857 109935714 L53390476 110030952 L53438095 110078571 L53533333 110126190 L53914285 110126190 "
           id="path238" />
        <path
           d="M52390476 110602380 L52961904 110602380 "
           id="path240" />
        <path
           d="M52676190 110602380 L52676190 109602380 L52771428 109745238 L52866666 109840476 L52961904 109888095 "
           id="path242" />
        <path
           d="M51771428 109602380 L51676190 109602380 L51580952 109650000 L51533333 109697619 L51485714 109792857 L51438095 109983333 L51438095 110221428 L51485714 110411904 L51533333 110507142 L51580952 110554761 L51676190 110602380 L51771428 110602380 L51866666 110554761 L51914285 110507142 L51961904 110411904 L52009523 110221428 L52009523 109983333 L51961904 109792857 L51914285 109697619 L51866666 109650000 L51771428 109602380 "
           id="path244" />
      </g>
      <g
         transform="rotate(-45.000000 150621043.000000 131901283.000000)"
         id="g250">
        <text
           x="150621043.000000"
           y="132401283.000000"
           transform="scale(-1 1) translate(-301242086.000000 0)"
           textLength="2709762.000000"
           font-size="1333333.000000"
           lengthAdjust="spacingAndGlyphs"
           text-anchor="middle"
           opacity="0"
           id="text248">C11</text>
      </g>
      <g
         class="stroked-text"
         id="g264">
        <desc
           id="desc252">C11</desc>
        <path
           d="M151328149 131699252 L151395493 131699252 L151530180 131631908 L151597523 131564565 L151664867 131429878 L151664867 131295191 L151631195 131194176 L151530180 131025817 L151429165 130924802 L151260806 130823786 L151159791 130790115 L151025104 130790115 L150890417 130857458 L150823073 130924802 L150755730 131059489 L150755730 131126832 "
           id="path254" />
        <path
           d="M150722058 132440031 L151126119 132035970 "
           id="path256" />
        <path
           d="M150924088 132238000 L150216981 131530893 L150385340 131564565 L150520027 131564565 L150621043 131530893 "
           id="path258" />
        <path
           d="M150048623 133113466 L150452684 132709405 "
           id="path260" />
        <path
           d="M150250653 132911435 L149543546 132204328 L149711905 132238000 L149846592 132238000 L149947607 132204328 "
           id="path262" />
      </g>
      <g
         transform="rotate(-30.000000 109249070.000000 100925185.000000)"
         id="g268">
        <text
           x="109249070.000000"
           y="101425185.000000"
           transform="scale(-1 1) translate(-218498140.000000 0)"
           textLength="1757381.000000"
           font-size="1333333.000000"
           lengthAdjust="spacingAndGlyphs"
           text-anchor="middle"
           opacity="0"
           id="text266">C3</text>
      </g>
      <g
         class="stroked-text"
         id="g276">
        <desc
           id="desc270">C3</desc>
        <path
           d="M109571978 101151146 L109637027 101168576 L109784555 101138386 L109867033 101090767 L109966942 100978100 L110001801 100848002 L109995422 100741714 L109941423 100552947 L109869994 100429229 L109733517 100288081 L109644658 100229412 L109514561 100194553 L109367033 100224742 L109284555 100272361 L109184646 100385029 L109167217 100450078 "
           id="path272" />
        <path
           d="M108830922 100534266 L108294811 100843790 L108773963 101007037 L108650245 101078466 L108591576 101167324 L108574146 101232373 L108580526 101338661 L108699573 101544858 L108788432 101603527 L108853481 101620957 L108959769 101614577 L109207204 101471720 L109265874 101382861 L109283303 101317813 "
           id="path274" />
      </g>
      <g
         transform="rotate(-90.000000 65450000.000000 131500000.000000)"
         id="g280">
        <text
           x="65450000.000000"
           y="132000000.000000"
           transform="scale(-1 1) translate(-130900000.000000 0)"
           textLength="1757381.000000"
           font-size="1333333.000000"
           lengthAdjust="spacingAndGlyphs"
           text-anchor="middle"
           opacity="0"
           id="text278">R2</text>
      </g>
      <g
         class="stroked-text"
         id="g290">
        <desc
           id="desc282">R2</desc>
        <path
           d="M65902380 131333333 L65426190 131000000 "
           id="path284" />
        <path
           d="M65902380 130761904 L64902380 130761904 L64902380 131142857 L64950000 131238095 L64997619 131285714 L65092857 131333333 L65235714 131333333 L65330952 131285714 L65378571 131238095 L65426190 131142857 L65426190 130761904 "
           id="path286" />
        <path
           d="M64997619 131714285 L64950000 131761904 L64902380 131857142 L64902380 132095238 L64950000 132190476 L64997619 132238095 L65092857 132285714 L65188095 132285714 L65330952 132238095 L65902380 131666666 L65902380 132285714 "
           id="path288" />
      </g>
      <g
         transform="rotate(-90.000000 59250000.000000 105150000.000000)"
         id="g294">
        <text
           x="59250000.000000"
           y="105650000.000000"
           transform="scale(-1 1) translate(-118500000.000000 0)"
           textLength="1757381.000000"
           font-size="1333333.000000"
           lengthAdjust="spacingAndGlyphs"
           text-anchor="middle"
           opacity="0"
           id="text292">R5</text>
      </g>
      <g
         class="stroked-text"
         id="g304">
        <desc
           id="desc296">R5</desc>
        <path
           d="M59702380 104983333 L59226190 104650000 "
           id="path298" />
        <path
           d="M59702380 104411904 L58702380 104411904 L58702380 104792857 L58750000 104888095 L58797619 104935714 L58892857 104983333 L59035714 104983333 L59130952 104935714 L59178571 104888095 L59226190 104792857 L59226190 104411904 "
           id="path300" />
        <path
           d="M58702380 105888095 L58702380 105411904 L59178571 105364285 L59130952 105411904 L59083333 105507142 L59083333 105745238 L59130952 105840476 L59178571 105888095 L59273809 105935714 L59511904 105935714 L59607142 105888095 L59654761 105840476 L59702380 105745238 L59702380 105507142 L59654761 105411904 L59607142 105364285 "
           id="path302" />
      </g>
      <text
         x="87262500.000000"
         y="124700000.000000"
         transform="scale(-1 1) translate(-174525000.000000 0)"
         textLength="1757381.000000"
         font-size="1333333.000000"
         lengthAdjust="spacingAndGlyphs"
         text-anchor="middle"
         opacity="0"
         id="text306">C2</text>
      <g
         class="stroked-text"
         id="g314">
        <desc
           id="desc308">C2</desc>
        <path
           d="M87429166 124557142 L87476785 124604761 L87619642 124652380 L87714880 124652380 L87857738 124604761 L87952976 124509523 L88000595 124414285 L88048214 124223809 L88048214 124080952 L88000595 123890476 L87952976 123795238 L87857738 123700000 L87714880 123652380 L87619642 123652380 L87476785 123700000 L87429166 123747619 "
           id="path310" />
        <path
           d="M87048214 123747619 L87000595 123700000 L86905357 123652380 L86667261 123652380 L86572023 123700000 L86524404 123747619 L86476785 123842857 L86476785 123938095 L86524404 124080952 L87095833 124652380 L86476785 124652380 "
           id="path312" />
      </g>
      <g
         transform="rotate(-90.000000 156050000.000000 126150000.000000)"
         id="g318">
        <text
           x="156050000.000000"
           y="126650000.000000"
           transform="scale(-1 1) translate(-312100000.000000 0)"
           textLength="1757381.000000"
           font-size="1333333.000000"
           lengthAdjust="spacingAndGlyphs"
           text-anchor="middle"
           opacity="0"
           id="text316">C9</text>
      </g>
      <g
         class="stroked-text"
         id="g326">
        <desc
           id="desc320">C9</desc>
        <path
           d="M156407142 125983333 L156454761 125935714 L156502380 125792857 L156502380 125697619 L156454761 125554761 L156359523 125459523 L156264285 125411904 L156073809 125364285 L155930952 125364285 L155740476 125411904 L155645238 125459523 L155550000 125554761 L155502380 125697619 L155502380 125792857 L155550000 125935714 L155597619 125983333 "
           id="path322" />
        <path
           d="M156502380 126459523 L156502380 126650000 L156454761 126745238 L156407142 126792857 L156264285 126888095 L156073809 126935714 L155692857 126935714 L155597619 126888095 L155550000 126840476 L155502380 126745238 L155502380 126554761 L155550000 126459523 L155597619 126411904 L155692857 126364285 L155930952 126364285 L156026190 126411904 L156073809 126459523 L156121428 126554761 L156121428 126745238 L156073809 126840476 L156026190 126888095 L155930952 126935714 "
           id="path324" />
      </g>
    </g>
    <g
       style="fill:#000000; fill-opacity:0.0;  stroke:#000000; stroke-width:254000.000000; stroke-opacity:1;  stroke-linecap:round; stroke-linejoin:round;"
       id="g342">
      <text
         x="97500000.000000"
         y="122785000.000000"
         transform="scale(-1 1) translate(-195000000.000000 0)"
         textLength="1982143.000000"
         font-size="1693333.000000"
         lengthAdjust="spacingAndGlyphs"
         text-anchor="middle"
         opacity="0"
         id="text330">J1</text>
      <g
         class="stroked-text"
         id="g340">
        <desc
           id="desc332">J1</desc>
        <path
           d="M97923333 121454523 L97923333 122361666 L97983809 122543095 L98104761 122664047 L98286190 122724523 L98407142 122724523 "
           id="path334" />
        <path
           d="M96653333 122724523 L97379047 122724523 "
           id="path336" />
        <path
           d="M97016190 122724523 L97016190 121454523 L97137142 121635952 L97258095 121756904 L97379047 121817380 "
           id="path338" />
      </g>
    </g>
    <g
       style="fill:#000000; fill-opacity:0.0;  stroke:#000000; stroke-width:150000.000000; stroke-opacity:1;  stroke-linecap:round; stroke-linejoin:round;"
       id="g502">
      <text
         x="156000000.000000"
         y="134500000.000000"
         transform="scale(-1 1) translate(-312000000.000000 0)"
         textLength="1622181.000000"
         font-size="1333333.000000"
         lengthAdjust="spacingAndGlyphs"
         text-anchor="middle"
         opacity="0"
         id="text344">C1</text>
      <g
         class="stroked-text"
         id="g354">
        <desc
           id="desc346">C1</desc>
        <path
           d="M156166666 134357142 L156214285 134404761 L156357142 134452380 L156452380 134452380 L156595238 134404761 L156690476 134309523 L156738095 134214285 L156785714 134023809 L156785714 133880952 L156738095 133690476 L156690476 133595238 L156595238 133500000 L156452380 133452380 L156357142 133452380 L156214285 133500000 L156166666 133547619 "
           id="path348" />
        <path
           d="M155214285 134452380 L155785714 134452380 "
           id="path350" />
        <path
           d="M155500000 134452380 L155500000 133452380 L155595238 133595238 L155690476 133690476 L155785714 133738095 "
           id="path352" />
      </g>
      <text
         x="151850000.000000"
         y="110450000.000000"
         transform="scale(-1 1) translate(-303700000.000000 0)"
         textLength="2709762.000000"
         font-size="1333333.000000"
         lengthAdjust="spacingAndGlyphs"
         text-anchor="middle"
         opacity="0"
         id="text356">R13</text>
      <g
         class="stroked-text"
         id="g370">
        <desc
           id="desc358">R13</desc>
        <path
           d="M152492857 110402380 L152826190 109926190 "
           id="path360" />
        <path
           d="M153064285 110402380 L153064285 109402380 L152683333 109402380 L152588095 109450000 L152540476 109497619 L152492857 109592857 L152492857 109735714 L152540476 109830952 L152588095 109878571 L152683333 109926190 L153064285 109926190 "
           id="path362" />
        <path
           d="M151540476 110402380 L152111904 110402380 "
           id="path364" />
        <path
           d="M151826190 110402380 L151826190 109402380 L151921428 109545238 L152016666 109640476 L152111904 109688095 "
           id="path366" />
        <path
           d="M151207142 109402380 L150588095 109402380 L150921428 109783333 L150778571 109783333 L150683333 109830952 L150635714 109878571 L150588095 109973809 L150588095 110211904 L150635714 110307142 L150683333 110354761 L150778571 110402380 L151064285 110402380 L151159523 110354761 L151207142 110307142 "
           id="path368" />
      </g>
      <text
         x="68100000.000000"
         y="110700000.000000"
         transform="scale(-1 1) translate(-136200000.000000 0)"
         textLength="2709762.000000"
         font-size="1333333.000000"
         lengthAdjust="spacingAndGlyphs"
         text-anchor="middle"
         opacity="0"
         id="text372">R11</text>
      <g
         class="stroked-text"
         id="g388">
        <desc
           id="desc374">R11</desc>
        <path
           d="M68742857 110652380 L69076190 110176190 "
           id="path376" />
        <path
           d="M69314285 110652380 L69314285 109652380 L68933333 109652380 L68838095 109700000 L68790476 109747619 L68742857 109842857 L68742857 109985714 L68790476 110080952 L68838095 110128571 L68933333 110176190 L69314285 110176190 "
           id="path378" />
        <path
           d="M67790476 110652380 L68361904 110652380 "
           id="path380" />
        <path
           d="M68076190 110652380 L68076190 109652380 L68171428 109795238 L68266666 109890476 L68361904 109938095 "
           id="path382" />
        <path
           d="M66838095 110652380 L67409523 110652380 "
           id="path384" />
        <path
           d="M67123809 110652380 L67123809 109652380 L67219047 109795238 L67314285 109890476 L67409523 109938095 "
           id="path386" />
      </g>
      <text
         x="110537500.000000"
         y="128800000.000000"
         transform="scale(-1 1) translate(-221075000.000000 0)"
         textLength="1805000.000000"
         font-size="1333333.000000"
         lengthAdjust="spacingAndGlyphs"
         text-anchor="middle"
         opacity="0"
         id="text390">U2</text>
      <g
         class="stroked-text"
         id="g398">
        <desc
           id="desc392">U2</desc>
        <path
           d="M111299404 127752380 L111299404 128561904 L111251785 128657142 L111204166 128704761 L111108928 128752380 L110918452 128752380 L110823214 128704761 L110775595 128657142 L110727976 128561904 L110727976 127752380 "
           id="path394" />
        <path
           d="M110299404 127847619 L110251785 127800000 L110156547 127752380 L109918452 127752380 L109823214 127800000 L109775595 127847619 L109727976 127942857 L109727976 128038095 L109775595 128180952 L110347023 128752380 L109727976 128752380 "
           id="path396" />
      </g>
      <g
         transform="rotate(-90.000000 132500000.000000 127000000.000000)"
         id="g402">
        <text
           x="132500000.000000"
           y="127500000.000000"
           transform="scale(-1 1) translate(-265000000.000000 0)"
           textLength="2709762.000000"
           font-size="1333333.000000"
           lengthAdjust="spacingAndGlyphs"
           text-anchor="middle"
           opacity="0"
           id="text400">C12</text>
      </g>
      <g
         class="stroked-text"
         id="g414">
        <desc
           id="desc404">C12</desc>
        <path
           d="M132857142 126357142 L132904761 126309523 L132952380 126166666 L132952380 126071428 L132904761 125928571 L132809523 125833333 L132714285 125785714 L132523809 125738095 L132380952 125738095 L132190476 125785714 L132095238 125833333 L132000000 125928571 L131952380 126071428 L131952380 126166666 L132000000 126309523 L132047619 126357142 "
           id="path406" />
        <path
           d="M132952380 127309523 L132952380 126738095 "
           id="path408" />
        <path
           d="M132952380 127023809 L131952380 127023809 L132095238 126928571 L132190476 126833333 L132238095 126738095 "
           id="path410" />
        <path
           d="M132047619 127690476 L132000000 127738095 L131952380 127833333 L131952380 128071428 L132000000 128166666 L132047619 128214285 L132142857 128261904 L132238095 128261904 L132380952 128214285 L132952380 127642857 L132952380 128261904 "
           id="path412" />
      </g>
      <g
         transform="rotate(-90.000000 142600000.000000 105075000.000000)"
         id="g418">
        <text
           x="142600000.000000"
           y="105575000.000000"
           transform="scale(-1 1) translate(-285200000.000000 0)"
           textLength="1757381.000000"
           font-size="1333333.000000"
           lengthAdjust="spacingAndGlyphs"
           text-anchor="middle"
           opacity="0"
           id="text416">R7</text>
      </g>
      <g
         class="stroked-text"
         id="g428">
        <desc
           id="desc420">R7</desc>
        <path
           d="M143052380 104908333 L142576190 104575000 "
           id="path422" />
        <path
           d="M143052380 104336904 L142052380 104336904 L142052380 104717857 L142100000 104813095 L142147619 104860714 L142242857 104908333 L142385714 104908333 L142480952 104860714 L142528571 104813095 L142576190 104717857 L142576190 104336904 "
           id="path424" />
        <path
           d="M142052380 105241666 L142052380 105908333 L143052380 105479761 "
           id="path426" />
      </g>
      <g
         transform="rotate(-90.000000 128150000.000000 112200000.000000)"
         id="g432">
        <text
           x="128150000.000000"
           y="112700000.000000"
           transform="scale(-1 1) translate(-256300000.000000 0)"
           textLength="1757381.000000"
           font-size="1333333.000000"
           lengthAdjust="spacingAndGlyphs"
           text-anchor="middle"
           opacity="0"
           id="text430">D5</text>
      </g>
      <g
         class="stroked-text"
         id="g440">
        <desc
           id="desc434">D5</desc>
        <path
           d="M128602380 111461904 L127602380 111461904 L127602380 111700000 L127650000 111842857 L127745238 111938095 L127840476 111985714 L128030952 112033333 L128173809 112033333 L128364285 111985714 L128459523 111938095 L128554761 111842857 L128602380 111700000 L128602380 111461904 "
           id="path436" />
        <path
           d="M127602380 112938095 L127602380 112461904 L128078571 112414285 L128030952 112461904 L127983333 112557142 L127983333 112795238 L128030952 112890476 L128078571 112938095 L128173809 112985714 L128411904 112985714 L128507142 112938095 L128554761 112890476 L128602380 112795238 L128602380 112557142 L128554761 112461904 L128507142 112414285 "
           id="path438" />
      </g>
      <text
         x="113600000.000000"
         y="128400000.000000"
         transform="scale(-1 1) translate(-227200000.000000 0)"
         textLength="2709762.000000"
         font-size="1333333.000000"
         lengthAdjust="spacingAndGlyphs"
         text-anchor="middle"
         opacity="0"
         id="text442">C15</text>
      <g
         class="stroked-text"
         id="g454">
        <desc
           id="desc444">C15</desc>
        <path
           d="M114242857 128257142 L114290476 128304761 L114433333 128352380 L114528571 128352380 L114671428 128304761 L114766666 128209523 L114814285 128114285 L114861904 127923809 L114861904 127780952 L114814285 127590476 L114766666 127495238 L114671428 127400000 L114528571 127352380 L114433333 127352380 L114290476 127400000 L114242857 127447619 "
           id="path446" />
        <path
           d="M113290476 128352380 L113861904 128352380 "
           id="path448" />
        <path
           d="M113576190 128352380 L113576190 127352380 L113671428 127495238 L113766666 127590476 L113861904 127638095 "
           id="path450" />
        <path
           d="M112385714 127352380 L112861904 127352380 L112909523 127828571 L112861904 127780952 L112766666 127733333 L112528571 127733333 L112433333 127780952 L112385714 127828571 L112338095 127923809 L112338095 128161904 L112385714 128257142 L112433333 128304761 L112528571 128352380 L112766666 128352380 L112861904 128304761 L112909523 128257142 "
           id="path452" />
      </g>
      <g
         transform="rotate(-90.000000 103450000.000000 115450000.000000)"
         id="g458">
        <text
           x="103450000.000000"
           y="115950000.000000"
           transform="scale(-1 1) translate(-206900000.000000 0)"
           textLength="2709762.000000"
           font-size="1333333.000000"
           lengthAdjust="spacingAndGlyphs"
           text-anchor="middle"
           opacity="0"
           id="text456">C18</text>
      </g>
      <g
         class="stroked-text"
         id="g470">
        <desc
           id="desc460">C18</desc>
        <path
           d="M103807142 114807142 L103854761 114759523 L103902380 114616666 L103902380 114521428 L103854761 114378571 L103759523 114283333 L103664285 114235714 L103473809 114188095 L103330952 114188095 L103140476 114235714 L103045238 114283333 L102950000 114378571 L102902380 114521428 L102902380 114616666 L102950000 114759523 L102997619 114807142 "
           id="path462" />
        <path
           d="M103902380 115759523 L103902380 115188095 "
           id="path464" />
        <path
           d="M103902380 115473809 L102902380 115473809 L103045238 115378571 L103140476 115283333 L103188095 115188095 "
           id="path466" />
        <path
           d="M103330952 116330952 L103283333 116235714 L103235714 116188095 L103140476 116140476 L103092857 116140476 L102997619 116188095 L102950000 116235714 L102902380 116330952 L102902380 116521428 L102950000 116616666 L102997619 116664285 L103092857 116711904 L103140476 116711904 L103235714 116664285 L103283333 116616666 L103330952 116521428 L103330952 116330952 L103378571 116235714 L103426190 116188095 L103521428 116140476 L103711904 116140476 L103807142 116188095 L103854761 116235714 L103902380 116330952 L103902380 116521428 L103854761 116616666 L103807142 116664285 L103711904 116711904 L103521428 116711904 L103426190 116664285 L103378571 116616666 L103330952 116521428 "
           id="path468" />
      </g>
      <g
         transform="rotate(-90.000000 150100000.000000 123837500.000000)"
         id="g474">
        <text
           x="150100000.000000"
           y="124337500.000000"
           transform="scale(-1 1) translate(-300200000.000000 0)"
           textLength="1757381.000000"
           font-size="1333333.000000"
           lengthAdjust="spacingAndGlyphs"
           text-anchor="middle"
           opacity="0"
           id="text472">R1</text>
      </g>
      <g
         class="stroked-text"
         id="g486">
        <desc
           id="desc476">R1</desc>
        <path
           d="M150552380 123670833 L150076190 123337500 "
           id="path478" />
        <path
           d="M150552380 123099404 L149552380 123099404 L149552380 123480357 L149600000 123575595 L149647619 123623214 L149742857 123670833 L149885714 123670833 L149980952 123623214 L150028571 123575595 L150076190 123480357 L150076190 123099404 "
           id="path480" />
        <path
           d="M150552380 124623214 L150552380 124051785 "
           id="path482" />
        <path
           d="M150552380 124337500 L149552380 124337500 L149695238 124242261 L149790476 124147023 L149838095 124051785 "
           id="path484" />
      </g>
      <g
         transform="rotate(-90.000000 67700000.000000 127650000.000000)"
         id="g490">
        <text
           x="67700000.000000"
           y="128150000.000000"
           transform="scale(-1 1) translate(-135400000.000000 0)"
           textLength="1757381.000000"
           font-size="1333333.000000"
           lengthAdjust="spacingAndGlyphs"
           text-anchor="middle"
           opacity="0"
           id="text488">R3</text>
      </g>
      <g
         class="stroked-text"
         id="g500">
        <desc
           id="desc492">R3</desc>
        <path
           d="M68152380 127483333 L67676190 127150000 "
           id="path494" />
        <path
           d="M68152380 126911904 L67152380 126911904 L67152380 127292857 L67200000 127388095 L67247619 127435714 L67342857 127483333 L67485714 127483333 L67580952 127435714 L67628571 127388095 L67676190 127292857 L67676190 126911904 "
           id="path496" />
        <path
           d="M67152380 127816666 L67152380 128435714 L67533333 128102380 L67533333 128245238 L67580952 128340476 L67628571 128388095 L67723809 128435714 L67961904 128435714 L68057142 128388095 L68104761 128340476 L68152380 128245238 L68152380 127959523 L68104761 127864285 L68057142 127816666 "
           id="path498" />
      </g>
    </g>
    <g
       style="fill:#000000; fill-opacity:0.0;  stroke:#000000; stroke-width:152000.000000; stroke-opacity:1;  stroke-linecap:round; stroke-linejoin:round;"
       id="g518">
      <text
         x="75936000.000000"
         y="125184000.000000"
         transform="scale(-1 1) translate(-151872000.000000 0)"
         textLength="2580857.000000"
         font-size="1524000.000000"
         lengthAdjust="spacingAndGlyphs"
         text-anchor="end"
         opacity="0"
         id="text504">IC1</text>
      <g
         class="stroked-text"
         id="g516">
        <desc
           id="desc506">IC1</desc>
        <path
           d="M78538514 125129571 L78538514 123986571 "
           id="path508" />
        <path
           d="M77341085 125020714 L77395514 125075142 L77558800 125129571 L77667657 125129571 L77830942 125075142 L77939800 124966285 L77994228 124857428 L78048657 124639714 L78048657 124476428 L77994228 124258714 L77939800 124149857 L77830942 124041000 L77667657 123986571 L77558800 123986571 L77395514 124041000 L77341085 124095428 "
           id="path510" />
        <path
           d="M76252514 125129571 L76905657 125129571 "
           id="path512" />
        <path
           d="M76579085 125129571 L76579085 123986571 L76687942 124149857 L76796800 124258714 L76905657 124313142 "
           id="path514" />
      </g>
    </g>
    <g
       style="fill:#000000; fill-opacity:0.0;  stroke:#000000; stroke-width:150000.000000; stroke-opacity:1;  stroke-linecap:round; stroke-linejoin:round;"
       id="g576">
      <text
         x="136250000.000000"
         y="110400000.000000"
         transform="scale(-1 1) translate(-272500000.000000 0)"
         textLength="2707162.000000"
         font-size="1333333.000000"
         lengthAdjust="spacingAndGlyphs"
         text-anchor="middle"
         opacity="0"
         id="text520">R12</text>
      <g
         class="stroked-text"
         id="g534">
        <desc
           id="desc522">R12</desc>
        <path
           d="M136892857 110352380 L137226190 109876190 "
           id="path524" />
        <path
           d="M137464285 110352380 L137464285 109352380 L137083333 109352380 L136988095 109400000 L136940476 109447619 L136892857 109542857 L136892857 109685714 L136940476 109780952 L136988095 109828571 L137083333 109876190 L137464285 109876190 "
           id="path526" />
        <path
           d="M135940476 110352380 L136511904 110352380 "
           id="path528" />
        <path
           d="M136226190 110352380 L136226190 109352380 L136321428 109495238 L136416666 109590476 L136511904 109638095 "
           id="path530" />
        <path
           d="M135559523 109447619 L135511904 109400000 L135416666 109352380 L135178571 109352380 L135083333 109400000 L135035714 109447619 L134988095 109542857 L134988095 109638095 L135035714 109780952 L135607142 110352380 L134988095 110352380 "
           id="path532" />
      </g>
      <text
         x="85200000.000000"
         y="115500000.000000"
         transform="scale(-1 1) translate(-170400000.000000 0)"
         textLength="1757381.000000"
         font-size="1333333.000000"
         lengthAdjust="spacingAndGlyphs"
         text-anchor="middle"
         opacity="0"
         id="text536">R9</text>
      <g
         class="stroked-text"
         id="g546">
        <desc
           id="desc538">R9</desc>
        <path
           d="M85366666 115452380 L85700000 114976190 "
           id="path540" />
        <path
           d="M85938095 115452380 L85938095 114452380 L85557142 114452380 L85461904 114500000 L85414285 114547619 L85366666 114642857 L85366666 114785714 L85414285 114880952 L85461904 114928571 L85557142 114976190 L85938095 114976190 "
           id="path542" />
        <path
           d="M84890476 115452380 L84700000 115452380 L84604761 115404761 L84557142 115357142 L84461904 115214285 L84414285 115023809 L84414285 114642857 L84461904 114547619 L84509523 114500000 L84604761 114452380 L84795238 114452380 L84890476 114500000 L84938095 114547619 L84985714 114642857 L84985714 114880952 L84938095 114976190 L84890476 115023809 L84795238 115071428 L84604761 115071428 L84509523 115023809 L84461904 114976190 L84414285 114880952 "
           id="path544" />
      </g>
      <g
         transform="rotate(-90.000000 60400000.000000 112300000.000000)"
         id="g550">
        <text
           x="60400000.000000"
           y="112800000.000000"
           transform="scale(-1 1) translate(-120800000.000000 0)"
           textLength="1757381.000000"
           font-size="1333333.000000"
           lengthAdjust="spacingAndGlyphs"
           text-anchor="middle"
           opacity="0"
           id="text548">D4</text>
      </g>
      <g
         class="stroked-text"
         id="g560">
        <desc
           id="desc552">D4</desc>
        <path
           d="M60852380 111561904 L59852380 111561904 L59852380 111800000 L59900000 111942857 L59995238 112038095 L60090476 112085714 L60280952 112133333 L60423809 112133333 L60614285 112085714 L60709523 112038095 L60804761 111942857 L60852380 111800000 L60852380 111561904 "
           id="path554" />
        <path
           d="M60185714 112990476 L60852380 112990476 "
           id="path556" />
        <path
           d="M59804761 112752380 L60519047 112514285 L60519047 113133333 "
           id="path558" />
      </g>
      <text
         x="89362500.000000"
         y="120350000.000000"
         transform="scale(-1 1) translate(-178725000.000000 0)"
         textLength="2709762.000000"
         font-size="1333333.000000"
         lengthAdjust="spacingAndGlyphs"
         text-anchor="middle"
         opacity="0"
         id="text562">C17</text>
      <g
         class="stroked-text"
         id="g574">
        <desc
           id="desc564">C17</desc>
        <path
           d="M90005357 120207142 L90052976 120254761 L90195833 120302380 L90291071 120302380 L90433928 120254761 L90529166 120159523 L90576785 120064285 L90624404 119873809 L90624404 119730952 L90576785 119540476 L90529166 119445238 L90433928 119350000 L90291071 119302380 L90195833 119302380 L90052976 119350000 L90005357 119397619 "
           id="path566" />
        <path
           d="M89052976 120302380 L89624404 120302380 "
           id="path568" />
        <path
           d="M89338690 120302380 L89338690 119302380 L89433928 119445238 L89529166 119540476 L89624404 119588095 "
           id="path570" />
        <path
           d="M88719642 119302380 L88052976 119302380 L88481547 120302380 "
           id="path572" />
      </g>
    </g>
    <g
       style="fill:#000000; fill-opacity:0.0;  stroke:#000000; stroke-width:152000.000000; stroke-opacity:1;  stroke-linecap:round; stroke-linejoin:round;"
       id="g588">
      <text
         x="81300000.000000"
         y="131771500.000000"
         transform="scale(-1 1) translate(-162600000.000000 0)"
         textLength="1764429.000000"
         font-size="1524000.000000"
         lengthAdjust="spacingAndGlyphs"
         text-anchor="start"
         opacity="0"
         id="text578">J2</text>
      <g
         class="stroked-text"
         id="g586">
        <desc
           id="desc580">J2</desc>
        <path
           d="M80602485 130574071 L80602485 131390500 L80656914 131553785 L80765771 131662642 L80929057 131717071 L81037914 131717071 "
           id="path582" />
        <path
           d="M80112628 130682928 L80058200 130628500 L79949342 130574071 L79677200 130574071 L79568342 130628500 L79513914 130682928 L79459485 130791785 L79459485 130900642 L79513914 131063928 L80167057 131717071 L79459485 131717071 "
           id="path584" />
      </g>
    </g>
    <g
       style="fill:#000000; fill-opacity:0.0;  stroke:#000000; stroke-width:150000.000000; stroke-opacity:1;  stroke-linecap:round; stroke-linejoin:round;"
       id="g616">
      <g
         transform="rotate(-90.000000 153000000.000000 126750000.000000)"
         id="g592">
        <text
           x="153000000.000000"
           y="127250000.000000"
           transform="scale(-1 1) translate(-306000000.000000 0)"
           textLength="2707162.000000"
           font-size="1333333.000000"
           lengthAdjust="spacingAndGlyphs"
           text-anchor="middle"
           opacity="0"
           id="text590">C13</text>
      </g>
      <g
         class="stroked-text"
         id="g604">
        <desc
           id="desc594">C13</desc>
        <path
           d="M153357142 126107142 L153404761 126059523 L153452380 125916666 L153452380 125821428 L153404761 125678571 L153309523 125583333 L153214285 125535714 L153023809 125488095 L152880952 125488095 L152690476 125535714 L152595238 125583333 L152500000 125678571 L152452380 125821428 L152452380 125916666 L152500000 126059523 L152547619 126107142 "
           id="path596" />
        <path
           d="M153452380 127059523 L153452380 126488095 "
           id="path598" />
        <path
           d="M153452380 126773809 L152452380 126773809 L152595238 126678571 L152690476 126583333 L152738095 126488095 "
           id="path600" />
        <path
           d="M152452380 127392857 L152452380 128011904 L152833333 127678571 L152833333 127821428 L152880952 127916666 L152928571 127964285 L153023809 128011904 L153261904 128011904 L153357142 127964285 L153404761 127916666 L153452380 127821428 L153452380 127535714 L153404761 127440476 L153357142 127392857 "
           id="path602" />
      </g>
      <text
         x="139887500.000000"
         y="132150000.000000"
         transform="scale(-1 1) translate(-279775000.000000 0)"
         textLength="1757381.000000"
         font-size="1333333.000000"
         lengthAdjust="spacingAndGlyphs"
         text-anchor="middle"
         opacity="0"
         id="text606">C8</text>
      <g
         class="stroked-text"
         id="g614">
        <desc
           id="desc608">C8</desc>
        <path
           d="M140054166 132007142 L140101785 132054761 L140244642 132102380 L140339880 132102380 L140482738 132054761 L140577976 131959523 L140625595 131864285 L140673214 131673809 L140673214 131530952 L140625595 131340476 L140577976 131245238 L140482738 131150000 L140339880 131102380 L140244642 131102380 L140101785 131150000 L140054166 131197619 "
           id="path610" />
        <path
           d="M139482738 131530952 L139577976 131483333 L139625595 131435714 L139673214 131340476 L139673214 131292857 L139625595 131197619 L139577976 131150000 L139482738 131102380 L139292261 131102380 L139197023 131150000 L139149404 131197619 L139101785 131292857 L139101785 131340476 L139149404 131435714 L139197023 131483333 L139292261 131530952 L139482738 131530952 L139577976 131578571 L139625595 131626190 L139673214 131721428 L139673214 131911904 L139625595 132007142 L139577976 132054761 L139482738 132102380 L139292261 132102380 L139197023 132054761 L139149404 132007142 L139101785 131911904 L139101785 131721428 L139149404 131626190 L139197023 131578571 L139292261 131530952 "
           id="path612" />
      </g>
    </g>
    <g
       style="fill:#000000; fill-opacity:0.0;  stroke:#000000; stroke-width:152000.000000; stroke-opacity:1;  stroke-linecap:round; stroke-linejoin:round;"
       id="g636">
      <g
         transform="rotate(-30.000000 84800000.000000 105950000.000000)"
         id="g620">
        <text
           x="84800000.000000"
           y="106521500.000000"
           transform="scale(-1 1) translate(-169600000.000000 0)"
           textLength="2907429.000000"
           font-size="1524000.000000"
           lengthAdjust="spacingAndGlyphs"
           text-anchor="end"
           opacity="0"
           id="text618">BT1</text>
      </g>
      <g
         class="stroked-text"
         id="g634">
        <desc
           id="desc622">BT1</desc>
        <path
           d="M86965885 104605252 L86851690 104734031 L86831768 104808382 L86839060 104929869 L86920702 105071279 L87022268 105138338 L87096618 105158260 L87218106 105150968 L87595198 104933254 L87023698 103943387 L86693742 104133887 L86626683 104235452 L86606761 104309803 L86614053 104431290 L86668482 104525563 L86770047 104592622 L86844398 104612544 L86965885 104605252 L87295841 104414752 "
           id="path624" />
        <path
           d="M86175240 104433244 L85609602 104759815 "
           id="path626" />
        <path
           d="M86463921 105586396 L85892421 104596529 "
           id="path628" />
        <path
           d="M85332645 106239539 L85898283 105912968 "
           id="path630" />
        <path
           d="M85615464 106076254 L85043964 105086387 L85219880 105173368 L85368581 105213212 L85490069 105205920 "
           id="path632" />
      </g>
    </g>
    <g
       style="fill:#000000; fill-opacity:0.0;  stroke:#000000; stroke-width:150000.000000; stroke-opacity:1;  stroke-linecap:round; stroke-linejoin:round;"
       id="g728">
      <g
         transform="rotate(-90.000000 128362500.000000 130837500.000000)"
         id="g640">
        <text
           x="128362500.000000"
           y="131337500.000000"
           transform="scale(-1 1) translate(-256725000.000000 0)"
           textLength="1754781.000000"
           font-size="1333333.000000"
           lengthAdjust="spacingAndGlyphs"
           text-anchor="middle"
           opacity="0"
           id="text638">C4</text>
      </g>
      <g
         class="stroked-text"
         id="g650">
        <desc
           id="desc642">C4</desc>
        <path
           d="M128719642 130670833 L128767261 130623214 L128814880 130480357 L128814880 130385119 L128767261 130242261 L128672023 130147023 L128576785 130099404 L128386309 130051785 L128243452 130051785 L128052976 130099404 L127957738 130147023 L127862500 130242261 L127814880 130385119 L127814880 130480357 L127862500 130623214 L127910119 130670833 "
           id="path644" />
        <path
           d="M128148214 131527976 L128814880 131527976 "
           id="path646" />
        <path
           d="M127767261 131289880 L128481547 131051785 L128481547 131670833 "
           id="path648" />
      </g>
      <g
         transform="rotate(-90.000000 142375000.000000 137500000.000000)"
         id="g654">
        <text
           x="142375000.000000"
           y="138000000.000000"
           transform="scale(-1 1) translate(-284750000.000000 0)"
           textLength="1757381.000000"
           font-size="1333333.000000"
           lengthAdjust="spacingAndGlyphs"
           text-anchor="middle"
           opacity="0"
           id="text652">C7</text>
      </g>
      <g
         class="stroked-text"
         id="g662">
        <desc
           id="desc656">C7</desc>
        <path
           d="M142732142 137333333 L142779761 137285714 L142827380 137142857 L142827380 137047619 L142779761 136904761 L142684523 136809523 L142589285 136761904 L142398809 136714285 L142255952 136714285 L142065476 136761904 L141970238 136809523 L141875000 136904761 L141827380 137047619 L141827380 137142857 L141875000 137285714 L141922619 137333333 "
           id="path658" />
        <path
           d="M141827380 137666666 L141827380 138333333 L142827380 137904761 "
           id="path660" />
      </g>
      <text
         x="149400000.000000"
         y="116550000.000000"
         transform="scale(-1 1) translate(-298800000.000000 0)"
         textLength="2709762.000000"
         font-size="1333333.000000"
         lengthAdjust="spacingAndGlyphs"
         text-anchor="middle"
         opacity="0"
         id="text664">C10</text>
      <g
         class="stroked-text"
         id="g676">
        <desc
           id="desc666">C10</desc>
        <path
           d="M150042857 116407142 L150090476 116454761 L150233333 116502380 L150328571 116502380 L150471428 116454761 L150566666 116359523 L150614285 116264285 L150661904 116073809 L150661904 115930952 L150614285 115740476 L150566666 115645238 L150471428 115550000 L150328571 115502380 L150233333 115502380 L150090476 115550000 L150042857 115597619 "
           id="path668" />
        <path
           d="M149090476 116502380 L149661904 116502380 "
           id="path670" />
        <path
           d="M149376190 116502380 L149376190 115502380 L149471428 115645238 L149566666 115740476 L149661904 115788095 "
           id="path672" />
        <path
           d="M148471428 115502380 L148376190 115502380 L148280952 115550000 L148233333 115597619 L148185714 115692857 L148138095 115883333 L148138095 116121428 L148185714 116311904 L148233333 116407142 L148280952 116454761 L148376190 116502380 L148471428 116502380 L148566666 116454761 L148614285 116407142 L148661904 116311904 L148709523 116121428 L148709523 115883333 L148661904 115692857 L148614285 115597619 L148566666 115550000 L148471428 115502380 "
           id="path674" />
      </g>
      <g
         transform="rotate(-90.000000 127000000.000000 105150000.000000)"
         id="g680">
        <text
           x="127000000.000000"
           y="105650000.000000"
           transform="scale(-1 1) translate(-254000000.000000 0)"
           textLength="1757381.000000"
           font-size="1333333.000000"
           lengthAdjust="spacingAndGlyphs"
           text-anchor="middle"
           opacity="0"
           id="text678">R6</text>
      </g>
      <g
         class="stroked-text"
         id="g690">
        <desc
           id="desc682">R6</desc>
        <path
           d="M127452380 104983333 L126976190 104650000 "
           id="path684" />
        <path
           d="M127452380 104411904 L126452380 104411904 L126452380 104792857 L126500000 104888095 L126547619 104935714 L126642857 104983333 L126785714 104983333 L126880952 104935714 L126928571 104888095 L126976190 104792857 L126976190 104411904 "
           id="path686" />
        <path
           d="M126452380 105840476 L126452380 105650000 L126500000 105554761 L126547619 105507142 L126690476 105411904 L126880952 105364285 L127261904 105364285 L127357142 105411904 L127404761 105459523 L127452380 105554761 L127452380 105745238 L127404761 105840476 L127357142 105888095 L127261904 105935714 L127023809 105935714 L126928571 105888095 L126880952 105840476 L126833333 105745238 L126833333 105554761 L126880952 105459523 L126928571 105411904 L127023809 105364285 "
           id="path688" />
      </g>
      <g
         transform="rotate(-90.000000 100250000.000000 115500000.000000)"
         id="g694">
        <text
           x="100250000.000000"
           y="116000000.000000"
           transform="scale(-1 1) translate(-200500000.000000 0)"
           textLength="2709762.000000"
           font-size="1333333.000000"
           lengthAdjust="spacingAndGlyphs"
           text-anchor="middle"
           opacity="0"
           id="text692">C19</text>
      </g>
      <g
         class="stroked-text"
         id="g706">
        <desc
           id="desc696">C19</desc>
        <path
           d="M100607142 114857142 L100654761 114809523 L100702380 114666666 L100702380 114571428 L100654761 114428571 L100559523 114333333 L100464285 114285714 L100273809 114238095 L100130952 114238095 L99940476 114285714 L99845238 114333333 L99750000 114428571 L99702380 114571428 L99702380 114666666 L99750000 114809523 L99797619 114857142 "
           id="path698" />
        <path
           d="M100702380 115809523 L100702380 115238095 "
           id="path700" />
        <path
           d="M100702380 115523809 L99702380 115523809 L99845238 115428571 L99940476 115333333 L99988095 115238095 "
           id="path702" />
        <path
           d="M100702380 116285714 L100702380 116476190 L100654761 116571428 L100607142 116619047 L100464285 116714285 L100273809 116761904 L99892857 116761904 L99797619 116714285 L99750000 116666666 L99702380 116571428 L99702380 116380952 L99750000 116285714 L99797619 116238095 L99892857 116190476 L100130952 116190476 L100226190 116238095 L100273809 116285714 L100321428 116380952 L100321428 116571428 L100273809 116666666 L100226190 116714285 L100130952 116761904 "
           id="path704" />
      </g>
      <text
         x="135600000.000000"
         y="116900000.000000"
         transform="scale(-1 1) translate(-271200000.000000 0)"
         textLength="1757381.000000"
         font-size="1333333.000000"
         lengthAdjust="spacingAndGlyphs"
         text-anchor="middle"
         opacity="0"
         id="text708">C6</text>
      <g
         class="stroked-text"
         id="g716">
        <desc
           id="desc710">C6</desc>
        <path
           d="M135766666 116757142 L135814285 116804761 L135957142 116852380 L136052380 116852380 L136195238 116804761 L136290476 116709523 L136338095 116614285 L136385714 116423809 L136385714 116280952 L136338095 116090476 L136290476 115995238 L136195238 115900000 L136052380 115852380 L135957142 115852380 L135814285 115900000 L135766666 115947619 "
           id="path712" />
        <path
           d="M134909523 115852380 L135100000 115852380 L135195238 115900000 L135242857 115947619 L135338095 116090476 L135385714 116280952 L135385714 116661904 L135338095 116757142 L135290476 116804761 L135195238 116852380 L135004761 116852380 L134909523 116804761 L134861904 116757142 L134814285 116661904 L134814285 116423809 L134861904 116328571 L134909523 116280952 L135004761 116233333 L135195238 116233333 L135290476 116280952 L135338095 116328571 L135385714 116423809 "
           id="path714" />
      </g>
      <text
         x="141825000.000000"
         y="134650000.000000"
         transform="scale(-1 1) translate(-283650000.000000 0)"
         textLength="1757381.000000"
         font-size="1333333.000000"
         lengthAdjust="spacingAndGlyphs"
         text-anchor="middle"
         opacity="0"
         id="text718">C5</text>
      <g
         class="stroked-text"
         id="g726">
        <desc
           id="desc720">C5</desc>
        <path
           d="M141991666 134507142 L142039285 134554761 L142182142 134602380 L142277380 134602380 L142420238 134554761 L142515476 134459523 L142563095 134364285 L142610714 134173809 L142610714 134030952 L142563095 133840476 L142515476 133745238 L142420238 133650000 L142277380 133602380 L142182142 133602380 L142039285 133650000 L141991666 133697619 "
           id="path722" />
        <path
           d="M141086904 133602380 L141563095 133602380 L141610714 134078571 L141563095 134030952 L141467857 133983333 L141229761 133983333 L141134523 134030952 L141086904 134078571 L141039285 134173809 L141039285 134411904 L141086904 134507142 L141134523 134554761 L141229761 134602380 L141467857 134602380 L141563095 134554761 L141610714 134507142 "
           id="path724" />
      </g>
    </g>
    <g
       style="fill:#000000; fill-opacity:0.0;  stroke:#000000; stroke-width:120000.000000; stroke-opacity:1;  stroke-linecap:round; stroke-linejoin:round;"
       id="g898">
      <path
         d="M95783767 117310000 L95491233 117310000 "
         id="path730" />
      <path
         d="M95783767 116290000 L95491233 116290000 "
         id="path732" />
      <path
         d="M134472500 120966233 L134472500 121258767 "
         id="path734" />
      <path
         d="M133452500 120966233 L133452500 121258767 "
         id="path736" />
      <path
         d="M105572500 115532776 L105572500 116042224 "
         id="path738" />
      <path
         d="M104527500 115532776 L104527500 116042224 "
         id="path740" />
      <path
         d="M85250000 130650000 L85250000 129450000 "
         id="path742" />
      <path
         d="M87100000 129450000 L85250000 129450000 "
         id="path744" />
      <path
         d="M87100000 130650000 L85250000 130650000 "
         id="path746" />
      <path
         d="M135058767 131010000 L134716233 131010000 "
         id="path748" />
      <path
         d="M135058767 129990000 L134716233 129990000 "
         id="path750" />
      <path
         d="M147400000 134700000 L154650000 134700000 "
         id="path752" />
      <path
         d="M154650000 134700000 L154650000 138300000 "
         id="path754" />
      <path
         d="M154650000 138300000 L147400000 138300000 "
         id="path756" />
      <path
         d="M47000000 111690000 L49860000 111690000 "
         id="path758" />
      <path
         d="M49860000 111690000 L49860000 113610000 "
         id="path760" />
      <path
         d="M49860000 113610000 L47000000 113610000 "
         id="path762" />
      <path
         d="M148885000 113410000 L146025000 113410000 "
         id="path764" />
      <path
         d="M146025000 111490000 L148885000 111490000 "
         id="path766" />
      <path
         d="M148885000 111490000 L148885000 113410000 "
         id="path768" />
      <path
         d="M116210000 131458767 L116210000 131116233 "
         id="path770" />
      <path
         d="M115190000 131458767 L115190000 131116233 "
         id="path772" />
      <path
         d="M112387500 139567500 L112387500 140857500 "
         id="path774" />
      <path
         d="M107537500 138557500 L107537500 137767500 "
         id="path776" />
      <path
         d="M113837500 139567500 L108137500 139567500 "
         id="path778" />
      <path
         d="M112387500 140857500 L112187500 141067500 "
         id="path780" />
      <path
         d="M109587500 136717500 L109387500 136717500 "
         id="path782" />
      <path
         d="M112587500 136717500 L110887500 136717500 "
         id="path784" />
      <path
         d="M111087500 140857500 L111287500 141067500 "
         id="path786" />
      <path
         d="M112187500 141067500 L111287500 141067500 "
         id="path788" />
      <path
         d="M114437500 137767500 L114437500 138557500 "
         id="path790" />
      <path
         d="M111087500 140857500 L111087500 139567500 "
         id="path792" />
      <path
         d="M104640000 130553733 L104640000 130846267 "
         id="path794" />
      <path
         d="M105660000 130553733 L105660000 130846267 "
         id="path796" />
      <path
         d="M147610000 128160000 L147610000 129110000 "
         id="path798" />
      <path
         d="M137390000 119840000 L137390000 118890000 "
         id="path800" />
      <path
         d="M147610000 129110000 L146660000 129110000 "
         id="path802" />
      <path
         d="M147610000 118890000 L146660000 118890000 "
         id="path804" />
      <path
         d="M146660000 129110000 L146660000 130450000 "
         id="path806" />
      <path
         d="M137390000 129110000 L138340000 129110000 "
         id="path808" />
      <path
         d="M137390000 118890000 L138340000 118890000 "
         id="path810" />
      <path
         d="M147610000 119840000 L147610000 118890000 "
         id="path812" />
      <path
         d="M137390000 128160000 L137390000 129110000 "
         id="path814" />
      <path
         d="M44627500 105795276 L44627500 106304724 "
         id="path816" />
      <path
         d="M45672500 105795276 L45672500 106304724 "
         id="path818" />
      <path
         d="M52095276 112122500 L52604724 112122500 "
         id="path820" />
      <path
         d="M52095276 111077500 L52604724 111077500 "
         id="path822" />
      <path
         d="M149867078 131354171 L150073931 131147318 "
         id="path824" />
      <path
         d="M149145829 130632922 L149352682 130426069 "
         id="path826" />
      <path
         d="M108968329 102331461 L109221671 102185194 "
         id="path828" />
      <path
         d="M109478329 103214806 L109731671 103068539 "
         id="path830" />
      <path
         d="M67622500 132592224 L67622500 132082776 "
         id="path832" />
      <path
         d="M66577500 132592224 L66577500 132082776 "
         id="path834" />
      <path
         d="M60227500 106242224 L60227500 105732776 "
         id="path836" />
      <path
         d="M61272500 106242224 L61272500 105732776 "
         id="path838" />
      <path
         d="M86303733 126210000 L86596267 126210000 "
         id="path840" />
      <path
         d="M86303733 125190000 L86596267 125190000 "
         id="path842" />
      <path
         d="M155010000 127146267 L155010000 126853733 "
         id="path844" />
      <path
         d="M153990000 127146267 L153990000 126853733 "
         id="path846" />
      <path
         d="M156510000 136646267 L156510000 136353733 "
         id="path848" />
      <path
         d="M155490000 136646267 L155490000 136353733 "
         id="path850" />
      <path
         d="M151257776 111872500 L151767224 111872500 "
         id="path852" />
      <path
         d="M151257776 110827500 L151767224 110827500 "
         id="path854" />
      <path
         d="M67495276 111077500 L68004724 111077500 "
         id="path856" />
      <path
         d="M67495276 112122500 L68004724 112122500 "
         id="path858" />
      <path
         d="M109337500 129252500 L111137500 129252500 "
         id="path860" />
      <path
         d="M109337500 129252500 L108537500 129252500 "
         id="path862" />
      <path
         d="M109337500 132372500 L110137500 132372500 "
         id="path864" />
      <path
         d="M109337500 132372500 L108537500 132372500 "
         id="path866" />
      <path
         d="M134472500 127166233 L134472500 127458767 "
         id="path868" />
      <path
         d="M133452500 127166233 L133452500 127458767 "
         id="path870" />
      <path
         d="M143477500 106167224 L143477500 105657776 "
         id="path872" />
      <path
         d="M144522500 106167224 L144522500 105657776 "
         id="path874" />
      <path
         d="M130425000 111440000 L133285000 111440000 "
         id="path876" />
      <path
         d="M133285000 111440000 L133285000 113360000 "
         id="path878" />
      <path
         d="M133285000 113360000 L130425000 113360000 "
         id="path880" />
      <path
         d="M113560000 130253733 L113560000 130546267 "
         id="path882" />
      <path
         d="M112540000 130253733 L112540000 130546267 "
         id="path884" />
      <path
         d="M101390000 115933767 L101390000 115641233 "
         id="path886" />
      <path
         d="M102410000 115933767 L102410000 115641233 "
         id="path888" />
      <path
         d="M152022500 123254724 L152022500 122745276 "
         id="path890" />
      <path
         d="M150977500 123254724 L150977500 122745276 "
         id="path892" />
      <path
         d="M69822500 128704724 L69822500 128195276 "
         id="path894" />
      <path
         d="M68777500 128704724 L68777500 128195276 "
         id="path896" />
    </g>
    <g
       style="fill:#000000; fill-opacity:0.0;  stroke:#000000; stroke-width:254000.000000; stroke-opacity:1;  stroke-linecap:round; stroke-linejoin:round;"
       id="g914">
      <path
         d="M77486000 130775000 L77486000 125675000 "
         id="path900" />
      <path
         d="M77486000 125675000 L73386000 125675000 "
         id="path902" />
      <path
         d="M76236000 130775000 L77486000 130775000 "
         id="path904" />
      <path
         d="M73386000 125675000 L73386000 130775000 "
         id="path906" />
      <path
         d="M74636000 130775000 L73386000 130775000 "
         id="path908" />
      <path
         d="M76235999.612536 130725000.181623 A883529.000000 883529.000000 0.0 0 0 74636186.177652 130724604.083382"
         id="path910" />
      <circle
         cx="72936000.000000"
         cy="131255000.000000"
         r="170000.000000"
         id="circle912" />
    </g>
    <g
       style="fill:#000000; fill-opacity:0.0;  stroke:#000000; stroke-width:120000.000000; stroke-opacity:1;  stroke-linecap:round; stroke-linejoin:round;"
       id="g934">
      <path
         d="M135595276 111922500 L136104724 111922500 "
         id="path916" />
      <path
         d="M135595276 110877500 L136104724 110877500 "
         id="path918" />
      <path
         d="M84777500 117742224 L84777500 117232776 "
         id="path920" />
      <path
         d="M85822500 117742224 L85822500 117232776 "
         id="path922" />
      <path
         d="M62615000 111640000 L65475000 111640000 "
         id="path924" />
      <path
         d="M65475000 111640000 L65475000 113560000 "
         id="path926" />
      <path
         d="M65475000 113560000 L62615000 113560000 "
         id="path928" />
      <path
         d="M89133767 117790000 L88841233 117790000 "
         id="path930" />
      <path
         d="M89133767 118810000 L88841233 118810000 "
         id="path932" />
    </g>
    <g
       style="fill:#000000; fill-opacity:0.0;  stroke:#000000; stroke-width:254000.000000; stroke-opacity:1;  stroke-linecap:round; stroke-linejoin:round;"
       id="g940">
      <path
         d="M86543000 138433000 L87018000 138433000 "
         id="path936" />
      <path
         d="M86141000 136333000 L86543000 138433000 "
         id="path938" />
    </g>
    <g
       style="fill:#000000; fill-opacity:0.0;  stroke:#000000; stroke-width:250000.000000; stroke-opacity:1;  stroke-linecap:round; stroke-linejoin:round;"
       id="g946">
      <path
         d="M83200000 134200000 L83800000 134200000 "
         id="path942" />
      <path
         d="M85200000 134200000 L84600000 134200000 "
         id="path944" />
    </g>
    <g
       style="fill:#000000; fill-opacity:0.0;  stroke:#000000; stroke-width:254000.000000; stroke-opacity:1;  stroke-linecap:round; stroke-linejoin:round;"
       id="g950">
      <path
         d="M85613000 136333000 L86141000 136333000 "
         id="path948" />
    </g>
    <g
       style="fill:#000000; fill-opacity:0.0;  stroke:#000000; stroke-width:250000.000000; stroke-opacity:1;  stroke-linecap:round; stroke-linejoin:round;"
       id="g954">
      <path
         d="M85200000 134600000 L85200000 134200000 "
         id="path952" />
    </g>
    <g
       style="fill:#000000; fill-opacity:0.0;  stroke:#000000; stroke-width:254000.000000; stroke-opacity:1;  stroke-linecap:round; stroke-linejoin:round;"
       id="g966">
      <path
         d="M82865000 136328000 L83266000 138428000 "
         id="path956" />
      <path
         d="M83441000 137128000 L83042000 137128000 "
         id="path958" />
      <path
         d="M85219000 135931000 L84719000 138433000 "
         id="path960" />
      <path
         d="M86520000 135931000 L85219000 135931000 "
         id="path962" />
      <path
         d="M82336000 136328000 L82865000 136328000 "
         id="path964" />
    </g>
    <g
       style="fill:#000000; fill-opacity:0.0;  stroke:#000000; stroke-width:250000.000000; stroke-opacity:1;  stroke-linecap:round; stroke-linejoin:round;"
       id="g974">
      <path
         d="M88700000 135050000 L88700000 135950000 "
         id="path968" />
      <path
         d="M83200000 134600000 L83200000 134200000 "
         id="path970" />
      <path
         d="M79700000 139000000 L79700000 139800000 "
         id="path972" />
    </g>
    <g
       style="fill:#000000; fill-opacity:0.0;  stroke:#000000; stroke-width:254000.000000; stroke-opacity:1;  stroke-linecap:round; stroke-linejoin:round;"
       id="g980">
      <path
         d="M86718000 137133000 L86319000 137133000 "
         id="path976" />
      <path
         d="M83741000 138428000 L83243000 135926000 "
         id="path978" />
    </g>
    <g
       style="fill:#000000; fill-opacity:0.0;  stroke:#000000; stroke-width:250000.000000; stroke-opacity:1;  stroke-linecap:round; stroke-linejoin:round;"
       id="g986">
      <path
         d="M79700000 135050000 L79700000 135850000 "
         id="path982" />
      <path
         d="M88700000 139000000 L88700000 139800000 "
         id="path984" />
    </g>
    <g
       style="fill:#000000; fill-opacity:0.0;  stroke:#000000; stroke-width:254000.000000; stroke-opacity:1;  stroke-linecap:round; stroke-linejoin:round;"
       id="g996">
      <path
         d="M84719000 138433000 L85214000 138433000 "
         id="path988" />
      <path
         d="M85214000 138433000 L85613000 136333000 "
         id="path990" />
      <path
         d="M87018000 138433000 L86520000 135931000 "
         id="path992" />
      <path
         d="M81943000 135926000 L81442000 138428000 "
         id="path994" />
    </g>
    <g
       style="fill:#000000; fill-opacity:0.0;  stroke:#000000; stroke-width:250000.000000; stroke-opacity:1;  stroke-linecap:round; stroke-linejoin:round;"
       id="g1000">
      <path
         d="M85210000 134600000 L83190000 134600000 "
         id="path998" />
    </g>
    <g
       style="fill:#000000; fill-opacity:0.0;  stroke:#000000; stroke-width:254000.000000; stroke-opacity:1;  stroke-linecap:round; stroke-linejoin:round;"
       id="g1006">
      <path
         d="M83266000 138428000 L83741000 138428000 "
         id="path1002" />
      <path
         d="M81937000 138428000 L82336000 136328000 "
         id="path1004" />
    </g>
    <g
       style="fill:#000000; fill-opacity:0.0;  stroke:#000000; stroke-width:250000.000000; stroke-opacity:1;  stroke-linecap:round; stroke-linejoin:round;"
       id="g1010">
      <path
         d="M88700000 139800000 L79700000 139800000 "
         id="path1008" />
    </g>
    <g
       style="fill:#000000; fill-opacity:0.0;  stroke:#000000; stroke-width:254000.000000; stroke-opacity:1;  stroke-linecap:round; stroke-linejoin:round;"
       id="g1016">
      <path
         d="M81442000 138428000 L81937000 138428000 "
         id="path1012" />
      <path
         d="M85419000 137132000 L85019000 137132000 "
         id="path1014" />
    </g>
    <g
       style="fill:#000000; fill-opacity:0.0;  stroke:#000000; stroke-width:250000.000000; stroke-opacity:1;  stroke-linecap:round; stroke-linejoin:round;"
       id="g1020">
      <path
         d="M83800000 134200000 L83800000 134000000 "
         id="path1018" />
    </g>
    <g
       style="fill:#000000; fill-opacity:0.0;  stroke:#000000; stroke-width:254000.000000; stroke-opacity:1;  stroke-linecap:round; stroke-linejoin:round;"
       id="g1026">
      <path
         d="M82142000 137127000 L81742000 137127000 "
         id="path1022" />
      <path
         d="M83243000 135926000 L81943000 135926000 "
         id="path1024" />
    </g>
    <g
       style="fill:#000000; fill-opacity:0.0;  stroke:#000000; stroke-width:250000.000000; stroke-opacity:1;  stroke-linecap:round; stroke-linejoin:round;"
       id="g1030">
      <path
         d="M84600000 134200000 L84600000 134000000 "
         id="path1028" />
    </g>
    <g
       style="fill:#000000; fill-opacity:0.0;  stroke:#000000; stroke-width:120000.000000; stroke-opacity:1;  stroke-linecap:round; stroke-linejoin:round;"
       id="g1192">
      <path
         d="M150990000 127221267 L150990000 126928733 "
         id="path1032" />
      <path
         d="M152010000 127221267 L152010000 126928733 "
         id="path1034" />
      <path
         d="M138941233 132590000 L139233767 132590000 "
         id="path1036" />
      <path
         d="M138941233 133610000 L139233767 133610000 "
         id="path1038" />
      <path
         d="M130510000 130146267 L130510000 129853733 "
         id="path1040" />
      <path
         d="M129490000 130146267 L129490000 129853733 "
         id="path1042" />
      <path
         d="M144510000 136491233 L144510000 136783767 "
         id="path1044" />
      <path
         d="M143490000 136491233 L143490000 136783767 "
         id="path1046" />
      <path
         d="M146496267 116360000 L146203733 116360000 "
         id="path1048" />
      <path
         d="M146496267 115340000 L146203733 115340000 "
         id="path1050" />
      <path
         d="M127877500 105682776 L127877500 106192224 "
         id="path1052" />
      <path
         d="M128922500 105682776 L128922500 106192224 "
         id="path1054" />
      <path
         d="M99210000 115983767 L99210000 115691233 "
         id="path1056" />
      <path
         d="M98190000 115983767 L98190000 115691233 "
         id="path1058" />
      <path
         d="M135021267 117240000 L134728733 117240000 "
         id="path1060" />
      <path
         d="M135021267 118260000 L134728733 118260000 "
         id="path1062" />
      <path
         d="M142758767 133210000 L142466233 133210000 "
         id="path1064" />
      <path
         d="M142758767 132190000 L142466233 132190000 "
         id="path1066" />
      <g
         id="g1068" />
      <g
         id="g1070" />
      <g
         id="g1072" />
      <g
         id="g1074" />
      <g
         id="g1076" />
      <g
         id="g1078" />
      <g
         id="g1080" />
      <g
         id="g1082" />
      <g
         id="g1084" />
      <g
         id="g1086" />
      <g
         id="g1088" />
      <g
         id="g1090" />
      <g
         id="g1092" />
      <g
         id="g1094" />
      <g
         id="g1096" />
      <g
         id="g1098" />
      <g
         id="g1100" />
      <g
         id="g1102" />
      <g
         id="g1104" />
      <g
         id="g1106" />
      <g
         id="g1108" />
      <g
         id="g1110" />
      <g
         id="g1112" />
      <g
         id="g1114" />
      <g
         id="g1116" />
      <g
         id="g1118" />
      <g
         id="g1120" />
      <g
         id="g1122" />
      <g
         id="g1124" />
      <g
         id="g1126" />
      <g
         id="g1128" />
      <g
         id="g1130" />
      <g
         id="g1132" />
      <g
         id="g1134" />
      <g
         id="g1136" />
      <g
         id="g1138" />
      <g
         id="g1140" />
      <g
         id="g1142" />
      <g
         id="g1144" />
      <g
         id="g1146" />
      <g
         id="g1148" />
      <g
         id="g1150" />
      <g
         id="g1152" />
      <g
         id="g1154" />
      <g
         id="g1156" />
      <g
         id="g1158" />
      <g
         id="g1160" />
      <g
         id="g1162" />
      <g
         id="g1164" />
      <g
         id="g1166" />
      <g
         id="g1168" />
      <g
         id="g1170" />
      <g
         id="g1172" />
      <g
         id="g1174" />
      <g
         id="g1176" />
      <g
         id="g1178" />
      <g
         id="g1180" />
      <g
         id="g1182" />
      <g
         id="g1184" />
      <g
         id="g1186" />
      <g
         id="g1188" />
      <g
         id="g1190" />
    </g>
  </g>
</svg>
